<?xml version="1.0" encoding="UTF-8"?>
<svg version="1.1" xmlns="http://www.w3.org/2000/svg" width="236" height="229">
<path d="M0 0 C77.88 0 155.76 0 236 0 C236 75.57 236 151.14 236 229 C158.12 229 80.24 229 0 229 C0 153.43 0 77.86 0 0 Z " fill="#2980B9" transform="translate(0,0)"/>
<path d="M0 0 C6.55408779 4.28395682 6.55408779 4.28395682 8.09765625 7.37109375 C9.00515625 7.04109375 9.91265625 6.71109375 10.84765625 6.37109375 C18.19187037 4.33845267 25.56660188 4.26143642 32.53515625 7.49609375 C37.95310007 10.56597203 41.75527759 14.5151471 44.09765625 20.37109375 C44.14120371 22.34978127 44.13758087 24.32982981 44.09765625 26.30859375 C44.19056636 29.50868324 44.19056636 29.50868324 45.09765625 32.37109375 C47.46270492 34.21057605 49.71754793 35.09542583 52.51171875 36.15625 C57.24825515 38.38142042 59.81242457 42.80063038 62.09765625 47.37109375 C62.75969919 55.03342675 63.00946254 62.11471479 58.09765625 68.37109375 C52.88481765 73.96103132 47.94608616 77.33859543 40.1026001 77.64524841 C38.56752754 77.66610332 37.03228398 77.67619131 35.49707031 77.67749023 C34.65394287 77.68581375 33.81081543 77.69413727 32.94213867 77.70271301 C30.16580531 77.72672908 27.38970735 77.73557541 24.61328125 77.7421875 C22.67283054 77.75116112 20.7323805 77.7602831 18.79193115 77.76954651 C14.72683027 77.78601692 10.66181154 77.79373291 6.59667969 77.79663086 C1.40726049 77.8020086 -3.78137811 77.8396721 -8.97057724 77.88537502 C-12.97880824 77.91523241 -16.98685335 77.92235632 -20.99518585 77.92335701 C-22.90722473 77.92754307 -24.81926499 77.93991201 -26.73119354 77.96087456 C-47.81312607 78.17359958 -47.81312607 78.17359958 -56.02142334 70.35179138 C-62.30909691 63.71911145 -64.49570029 57.52504763 -64.45532227 48.49072266 C-64.15748708 40.19891494 -60.48980871 34.5992143 -54.58984375 28.93359375 C-50.78430745 25.92158857 -46.55479613 24.57376851 -41.90234375 23.37109375 C-41.84046875 22.07171875 -41.77859375 20.77234375 -41.71484375 19.43359375 C-40.80506891 11.70657278 -37.46541323 6.32107277 -31.46484375 1.43359375 C-22.06970368 -5.67578774 -10.04420136 -5.76520826 0 0 Z " fill="#FDFEFE" transform="translate(149.90234375,99.62890625)"/>
<path d="M0 0 C5.04525174 0.88595718 8.6451522 4.06608801 12.60546875 7.1328125 C14.07970903 8.27194025 15.56248341 9.40013256 17.0546875 10.515625 C17.70139404 11.01723145 18.34810059 11.51883789 19.0144043 12.03564453 C20.86159081 13.19381335 20.86159081 13.19381335 22.91845703 12.81787109 C25.0972391 11.93518503 26.84628023 10.88548888 28.7734375 9.5390625 C29.47791016 9.05050781 30.18238281 8.56195313 30.90820312 8.05859375 C31.63330078 7.54683594 32.35839844 7.03507812 33.10546875 6.5078125 C33.84216797 5.99605469 34.57886719 5.48429687 35.33789062 4.95703125 C38.7803128 2.66990382 38.7803128 2.66990382 41.91796875 0.0078125 C44.85546875 -0.1796875 44.85546875 -0.1796875 47.91796875 0.0078125 C50.68503009 2.77487384 50.74401348 5.18287203 51.48046875 9.0078125 C51.72925781 10.2659375 51.97804688 11.5240625 52.234375 12.8203125 C53.06658349 17.52038599 53.49863852 22.25580897 53.91796875 27.0078125 C54.62928955 27.11851074 55.34061035 27.22920898 56.07348633 27.34326172 C59.29373483 27.84880102 62.51206459 28.36566722 65.73046875 28.8828125 C67.40979492 29.14384766 67.40979492 29.14384766 69.12304688 29.41015625 C70.19619141 29.58417969 71.26933594 29.75820313 72.375 29.9375 C73.85963745 30.17315674 73.85963745 30.17315674 75.37426758 30.41357422 C77.91796875 31.0078125 77.91796875 31.0078125 80.91796875 33.0078125 C81.49204196 36.74718848 81.17207716 38.56719697 79.2734375 41.859375 C78.55800781 42.77460937 77.84257812 43.68984375 77.10546875 44.6328125 C76.39777344 45.55320313 75.69007813 46.47359375 74.9609375 47.421875 C74.28675781 48.27523437 73.61257812 49.12859375 72.91796875 50.0078125 C72.24121094 51.13123047 72.24121094 51.13123047 71.55078125 52.27734375 C69.15340793 54.81810064 67.02538665 54.72713735 63.60546875 55.0703125 C58.64343537 55.68365961 55.18110506 56.47297469 50.91796875 59.0078125 C50.25796875 59.0078125 49.59796875 59.0078125 48.91796875 59.0078125 C48.79421875 58.17378906 48.67046875 57.33976562 48.54296875 56.48046875 C47.00095139 48.06683653 44.73547679 42.38761476 37.91796875 37.0078125 C30.5178007 32.49910084 22.66271839 31.72269073 14.28125 33.59765625 C7.42153419 35.8772249 2.80939024 39.94692353 -1.08203125 46.0078125 C-2.28546645 49.01138619 -2.81459589 51.79264519 -3.08203125 55.0078125 C-3.18515625 56.1421875 -3.28828125 57.2765625 -3.39453125 58.4453125 C-2.70813592 66.27021923 -0.68289036 72.58121342 4.84375 78.31640625 C11.55449196 83.78863086 19.52025419 84.68850776 27.91796875 85.0078125 C27.25796875 85.4821875 26.59796875 85.9565625 25.91796875 86.4453125 C18.76008357 92.55933942 11.56111147 99.9332426 10.66796875 109.7578125 C9.52391124 113.18998502 7.05018926 114.31912271 3.98828125 116.05859375 C1.42412317 117.23423604 -0.31274824 117.6594085 -3.08203125 117.0078125 C-4.97527812 114.16794219 -5.50887954 112.75274497 -6.15234375 109.515625 C-6.32636719 108.64550781 -6.50039063 107.77539062 -6.6796875 106.87890625 C-6.94072266 105.51958984 -6.94072266 105.51958984 -7.20703125 104.1328125 C-7.47966797 102.78509766 -7.47966797 102.78509766 -7.7578125 101.41015625 C-8.58639712 97.19247364 -9.1805108 93.32083446 -9.08203125 89.0078125 C-9.9534375 88.97042969 -10.82484375 88.93304688 -11.72265625 88.89453125 C-32.33289036 87.75695339 -32.33289036 87.75695339 -36.08203125 84.0078125 C-36.68813591 80.8119879 -36.49750009 78.71690989 -34.84326172 75.89355469 C-33.12079694 73.51112797 -31.34248978 71.18925951 -29.51953125 68.8828125 C-28.277579 67.30585159 -27.04651997 65.72023189 -25.828125 64.125 C-25.27825928 63.43003418 -24.72839355 62.73506836 -24.16186523 62.01904297 C-22.8897485 60.08968157 -22.8897485 60.08968157 -23.25610352 57.99145508 C-24.15531029 55.83181717 -25.21074919 54.07034875 -26.55078125 52.15234375 C-27.03933594 51.44787109 -27.52789062 50.74339844 -28.03125 50.01757812 C-28.54300781 49.29248047 -29.05476563 48.56738281 -29.58203125 47.8203125 C-30.09378906 47.08361328 -30.60554688 46.34691406 -31.1328125 45.58789062 C-33.41993993 42.14546845 -33.41993993 42.14546845 -36.08203125 39.0078125 C-36.12283908 37.00822886 -36.12457481 35.00735996 -36.08203125 33.0078125 C-30.34110903 30.19641437 -24.95627167 29.15188089 -18.64453125 28.3203125 C-17.72220703 28.19076172 -16.79988281 28.06121094 -15.84960938 27.92773438 C-13.59481082 27.61229624 -11.33917887 27.30589017 -9.08203125 27.0078125 C-8.96085937 25.95722656 -8.8396875 24.90664063 -8.71484375 23.82421875 C-5.90241425 0.01496176 -5.90241425 0.01496176 0 0 Z " fill="#FAFCFD" transform="translate(68.08203125,32.9921875)"/>
<path d="M0 0 C3.79245637 2.64857783 6.86094673 6.2101747 8.9296875 10.34765625 C9.56032332 16.3023137 9.00122581 21.09631656 5.9296875 26.34765625 C1.4686945 31.12807838 -2.8129496 33.97889819 -9.3828125 34.72265625 C-16.70348494 33.97818109 -21.30074864 30.69263744 -25.94140625 25.12890625 C-28.71083587 20.75914879 -28.68958035 15.35413152 -28.0703125 10.34765625 C-25.28185743 4.77074611 -21.10321573 0.98075799 -15.6328125 -1.96484375 C-9.7391221 -3.54607776 -5.26446312 -2.85755878 0 0 Z " fill="#F9FBFD" transform="translate(100.0703125,75.65234375)"/>
</svg>
